<svg width="273" height="59" viewBox="0 0 273 59" fill="none" xmlns="http://www.w3.org/2000/svg">
<path d="M19.3438 1.4375L32.7812 34.3281H33.4844L46.9219 1.4375H65.4375V58H50.9062V24.7188H50.4375L37.5469 57.6094H28.6406L15.8281 24.4844H15.3594V58H0.828125V1.4375H19.3438ZM135.469 29.7188C135.469 35.8125 134.271 41.0469 131.875 45.4219C129.505 49.7969 126.25 53.1172 122.109 55.3828C117.969 57.6484 113.307 58.7812 108.125 58.7812C102.917 58.7812 98.2292 57.6484 94.0625 55.3828C89.9219 53.1172 86.6536 49.7969 84.2578 45.4219C81.888 41.0469 80.7031 35.8125 80.7031 29.7188C80.7031 23.625 81.888 18.3906 84.2578 14.0156C86.6536 9.64062 89.9219 6.32031 94.0625 4.05469C98.2031 1.78906 102.891 0.65625 108.125 0.65625C113.307 0.65625 117.969 1.78906 122.109 4.05469C126.25 6.32031 129.505 9.64062 131.875 14.0156C134.271 18.3906 135.469 23.625 135.469 29.7188ZM120.156 29.7188C120.156 24.5365 119.115 20.5651 117.031 17.8047C114.974 15.0182 112.005 13.625 108.125 13.625C104.219 13.625 101.224 15.0182 99.1406 17.8047C97.0573 20.5651 96.0156 24.5365 96.0156 29.7188C96.0156 34.901 97.0573 38.8854 99.1406 41.6719C101.224 44.4323 104.219 45.8125 108.125 45.8125C112.005 45.8125 114.974 44.4323 117.031 41.6719C119.115 38.8854 120.156 34.901 120.156 29.7188ZM188 22.4531C187.766 19.7448 186.763 17.5964 184.992 16.0078C183.247 14.4193 180.891 13.625 177.922 13.625C175.344 13.625 173.13 14.263 171.281 15.5391C169.458 16.8151 168.065 18.6641 167.102 21.0859C166.138 23.4818 165.656 26.3594 165.656 29.7188C165.656 34.9792 166.711 38.9766 168.82 41.7109C170.956 44.4453 173.964 45.8125 177.844 45.8125C180.656 45.8125 182.948 45.0964 184.719 43.6641C186.516 42.2057 187.609 40.2135 188 37.6875L203.078 37.8438C202.792 41.2552 201.62 44.5755 199.562 47.8047C197.531 51.0078 194.628 53.638 190.852 55.6953C187.102 57.7526 182.661 58.7812 177.531 58.7812C172.297 58.7812 167.622 57.6484 163.508 55.3828C159.393 53.1172 156.164 49.7969 153.82 45.4219C151.503 41.0469 150.344 35.8125 150.344 29.7188C150.344 23.625 151.529 18.3906 153.898 14.0156C156.268 9.64062 159.51 6.32031 163.625 4.05469C167.74 1.78906 172.375 0.65625 177.531 0.65625C182.245 0.65625 186.451 1.51562 190.148 3.23438C193.846 4.92708 196.815 7.41406 199.055 10.6953C201.32 13.9766 202.661 17.8958 203.078 22.4531H188ZM214.516 58L233.344 1.4375H253.578L272.328 58H256.312L252.914 46.9062H233.969L230.609 58H214.516ZM249.477 35.6562L243.656 16.6719H243.188L237.406 35.6562H249.477Z" fill="white"/>
</svg>
